<?xml version="1.0" encoding="UTF-8" standalone="no"?>
<!-- Created with Inkscape (http://www.inkscape.org/) -->

<svg
   xmlns:dc="http://purl.org/dc/elements/1.1/"
   xmlns:cc="http://creativecommons.org/ns#"
   xmlns:rdf="http://www.w3.org/1999/02/22-rdf-syntax-ns#"
   xmlns:svg="http://www.w3.org/2000/svg"
   xmlns="http://www.w3.org/2000/svg"
   version="1.1"
   width="210mm"
   height="297mm"
   id="svg3098">
  <defs
     id="defs3100" />
  <metadata
     id="metadata3103">
    <rdf:RDF>
      <cc:Work
         rdf:about="">
        <dc:format>image/svg+xml</dc:format>
        <dc:type
           rdf:resource="http://purl.org/dc/dcmitype/StillImage" />
        <dc:title></dc:title>
      </cc:Work>
    </rdf:RDF>
  </metadata>
  <g
     id="layer1">
    <rect
       width="2000"
       height="2000"
       ry="160"
       x="0"
       y="1052.3622"
       id="rect2987-4-5-6"
       style="fill:#003147;fill-opacity:1;stroke:#000000;stroke-width:2.20000005;stroke-linecap:round;stroke-linejoin:bevel;stroke-miterlimit:4;stroke-opacity:1;stroke-dasharray:none;stroke-dashoffset:0" />
    <g
       transform="matrix(1.0882151,0,0,0.91893598,-1212.5,-12731.25)"
       id="text3032-45-1-7"
       style="font-size:81.24650574px;font-style:oblique;font-variant:normal;font-weight:normal;font-stretch:normal;text-align:start;line-height:125%;letter-spacing:-1.08328676px;word-spacing:0px;writing-mode:lr-tb;text-anchor:start;fill:#ffffff;fill-opacity:1;stroke:none;font-family:Meiryo UI;-inkscape-font-specification:Impact Oblique">
      <path
         d="m 2238.0777,15694.8 208.2734,0 c 134.4404,0 223.2596,6.172 266.4579,18.513 43.1965,12.344 72.3437,32.62 87.4418,60.829 15.0961,28.212 19.8483,59.618 14.2568,94.219 -5.5935,34.603 -25.6081,102.595 -60.0439,203.976 l -127.4436,374.892 c -32.6468,96.093 -58.9909,160.338 -79.0323,192.736 -20.0429,32.398 -44.4172,57.744 -73.123,76.036 -28.7071,18.293 -60.8228,31.076 -96.3472,38.349 -35.5255,7.273 -86.5676,10.91 -153.1264,10.91 l -351.0896,0 z m 175.9216,183.149 -233.5646,704.162 c 40.1115,0 100.5543,8.959 115.28,-7.13 14.7246,-16.089 35.6585,-76.84 59.93,-148.248 l 141.3285,-415.886 c 16.4738,-48.486 25.4894,-79.562 27.0466,-93.227 1.5558,-13.664 -2.0876,-23.692 -10.9302,-30.084 -8.8441,-6.391 -68.6764,-9.587 -99.0903,-9.587 z"
         id="path4389"
         style="font-size:1354.10827637px;fill:#ffffff;font-family:Impact;-inkscape-font-specification:Impact Oblique" />
    </g>
    <g
       transform="matrix(1.0512344,0,0,0.9512626,-1212.5,-12731.25)"
       id="text3032-17-2-5"
       style="font-size:78.48551941px;font-style:oblique;font-variant:normal;font-weight:normal;font-stretch:normal;text-align:start;line-height:125%;letter-spacing:-1.0464735px;word-spacing:0px;writing-mode:lr-tb;text-anchor:start;fill:#ffffff;fill-opacity:1;stroke:none;font-family:Meiryo UI;-inkscape-font-specification:Impact Oblique">
      <path
         d="m 2476.4618,15161.447 -351.414,1034.082 -187.4847,0 189.6803,-698.117 -357.889,698.117 -119.1419,0 112.0043,-682.149 -282.3501,678.864 -184.512,3.285 351.414,-1034.082 348.1006,0 c -10.9121,62.169 -24.9373,135.409 -42.0754,219.718 l -52.3748,263.152 225.3872,-482.87 z"
         id="path4386"
         style="font-size:1308.09191895px;fill:#ffffff;font-family:Impact;-inkscape-font-specification:Impact Oblique" />
    </g>
    <path
       d="M 974.99997,11727.362 397.50411,11398.28 971.24592,11062.695 z"
       transform="matrix(-0.97847483,-0.16224473,-0.07269279,0.42407724,3155.3449,-3221.7072)"
       id="path4157-3"
       style="fill:#ffffff;fill-opacity:1;fill-rule:nonzero;stroke:none" />
    <path
       d="m 1473.0112,1430.0909 17.0266,-4.912 c -20.2259,0 -192.7013,-73.152 -519.1638,-35.133 -54.2959,6.323 -427.4749,75.156 -507.3939,314.595 l -323.8652,970.31 208.4193,0 342.0522,-980.679 c 159.037,-159.636 420.358,-249.77 741.7285,-159.964 l 41.2289,49.543 -0.032,-153.76 z"
       id="path4183-2"
       style="font-size:medium;font-style:normal;font-variant:normal;font-weight:normal;font-stretch:normal;text-indent:0;text-align:start;text-decoration:none;line-height:normal;letter-spacing:normal;word-spacing:normal;text-transform:none;direction:ltr;block-progression:tb;writing-mode:lr-tb;text-anchor:start;baseline-shift:baseline;color:#000000;fill:#ffffff;fill-opacity:1;fill-rule:evenodd;stroke:none;stroke-width:148.30000305;marker:none;visibility:visible;display:inline;overflow:visible;enable-background:accumulate;font-family:Sans;-inkscape-font-specification:Sans" />
  </g>
</svg>
